<mxfile host="app.diagrams.net" agent="Mozilla/5.0 (Windows NT 10.0; Win64; x64) AppleWebKit/537.36 (KHTML, like Gecko) Chrome/129.0.0.0 Safari/537.36" version="24.7.17">
  <diagram name="Trang-1" id="npuXC-bEJ6i2YfuDcWWq">
    <mxGraphModel dx="2550" dy="782" grid="1" gridSize="10" guides="1" tooltips="1" connect="1" arrows="1" fold="1" page="1" pageScale="1" pageWidth="827" pageHeight="1169" math="0" shadow="0">
      <root>
        <mxCell id="0" />
        <mxCell id="1" parent="0" />
        <mxCell id="FTOcwI3MvWnB_Ci4rsNr-33" value="" style="rounded=1;whiteSpace=wrap;html=1;" vertex="1" parent="1">
          <mxGeometry x="-250" y="655" width="120" height="60" as="geometry" />
        </mxCell>
        <mxCell id="FTOcwI3MvWnB_Ci4rsNr-32" value="" style="rounded=1;whiteSpace=wrap;html=1;" vertex="1" parent="1">
          <mxGeometry x="-260" y="425" width="120" height="60" as="geometry" />
        </mxCell>
        <mxCell id="FTOcwI3MvWnB_Ci4rsNr-31" value="" style="rounded=1;whiteSpace=wrap;html=1;" vertex="1" parent="1">
          <mxGeometry x="-260" y="315" width="120" height="60" as="geometry" />
        </mxCell>
        <mxCell id="FTOcwI3MvWnB_Ci4rsNr-30" value="" style="rounded=1;whiteSpace=wrap;html=1;" vertex="1" parent="1">
          <mxGeometry x="-510" y="665" width="120" height="60" as="geometry" />
        </mxCell>
        <mxCell id="FTOcwI3MvWnB_Ci4rsNr-29" value="" style="rounded=1;whiteSpace=wrap;html=1;" vertex="1" parent="1">
          <mxGeometry x="-510" y="540" width="120" height="60" as="geometry" />
        </mxCell>
        <mxCell id="FTOcwI3MvWnB_Ci4rsNr-28" value="" style="rounded=1;whiteSpace=wrap;html=1;" vertex="1" parent="1">
          <mxGeometry x="-510" y="430" width="120" height="60" as="geometry" />
        </mxCell>
        <mxCell id="FTOcwI3MvWnB_Ci4rsNr-27" value="" style="rounded=1;whiteSpace=wrap;html=1;" vertex="1" parent="1">
          <mxGeometry x="-510" y="305" width="120" height="60" as="geometry" />
        </mxCell>
        <mxCell id="FTOcwI3MvWnB_Ci4rsNr-26" value="" style="rounded=1;whiteSpace=wrap;html=1;" vertex="1" parent="1">
          <mxGeometry x="-790" y="665" width="120" height="60" as="geometry" />
        </mxCell>
        <mxCell id="FTOcwI3MvWnB_Ci4rsNr-54" style="edgeStyle=orthogonalEdgeStyle;rounded=0;orthogonalLoop=1;jettySize=auto;html=1;exitX=0.5;exitY=1;exitDx=0;exitDy=0;entryX=0.5;entryY=0;entryDx=0;entryDy=0;" edge="1" parent="1" source="FTOcwI3MvWnB_Ci4rsNr-25" target="FTOcwI3MvWnB_Ci4rsNr-26">
          <mxGeometry relative="1" as="geometry" />
        </mxCell>
        <mxCell id="FTOcwI3MvWnB_Ci4rsNr-25" value="" style="rounded=1;whiteSpace=wrap;html=1;" vertex="1" parent="1">
          <mxGeometry x="-790" y="535" width="120" height="60" as="geometry" />
        </mxCell>
        <mxCell id="FTOcwI3MvWnB_Ci4rsNr-53" style="edgeStyle=orthogonalEdgeStyle;rounded=0;orthogonalLoop=1;jettySize=auto;html=1;exitX=0.5;exitY=1;exitDx=0;exitDy=0;entryX=0.5;entryY=0;entryDx=0;entryDy=0;" edge="1" parent="1" source="FTOcwI3MvWnB_Ci4rsNr-24" target="FTOcwI3MvWnB_Ci4rsNr-25">
          <mxGeometry relative="1" as="geometry" />
        </mxCell>
        <mxCell id="FTOcwI3MvWnB_Ci4rsNr-24" value="" style="rounded=1;whiteSpace=wrap;html=1;" vertex="1" parent="1">
          <mxGeometry x="-785" y="425" width="120" height="60" as="geometry" />
        </mxCell>
        <mxCell id="FTOcwI3MvWnB_Ci4rsNr-52" style="edgeStyle=orthogonalEdgeStyle;rounded=0;orthogonalLoop=1;jettySize=auto;html=1;exitX=0.5;exitY=1;exitDx=0;exitDy=0;entryX=0.5;entryY=0;entryDx=0;entryDy=0;" edge="1" parent="1" source="FTOcwI3MvWnB_Ci4rsNr-20" target="FTOcwI3MvWnB_Ci4rsNr-24">
          <mxGeometry relative="1" as="geometry" />
        </mxCell>
        <mxCell id="FTOcwI3MvWnB_Ci4rsNr-20" value="" style="rounded=1;whiteSpace=wrap;html=1;shadow=1;" vertex="1" parent="1">
          <mxGeometry x="-785" y="305" width="120" height="60" as="geometry" />
        </mxCell>
        <mxCell id="FTOcwI3MvWnB_Ci4rsNr-1" value="" style="rounded=1;whiteSpace=wrap;html=1;" vertex="1" parent="1">
          <mxGeometry x="-790" y="190" width="120" height="60" as="geometry" />
        </mxCell>
        <mxCell id="FTOcwI3MvWnB_Ci4rsNr-2" value="" style="rounded=1;whiteSpace=wrap;html=1;" vertex="1" parent="1">
          <mxGeometry x="-520" y="190" width="120" height="60" as="geometry" />
        </mxCell>
        <mxCell id="FTOcwI3MvWnB_Ci4rsNr-3" value="" style="rounded=1;whiteSpace=wrap;html=1;" vertex="1" parent="1">
          <mxGeometry x="-260" y="190" width="120" height="60" as="geometry" />
        </mxCell>
        <mxCell id="FTOcwI3MvWnB_Ci4rsNr-4" value="Register member" style="text;html=1;align=center;verticalAlign=middle;whiteSpace=wrap;rounded=0;" vertex="1" parent="1">
          <mxGeometry x="-760" y="205" width="60" height="30" as="geometry" />
        </mxCell>
        <mxCell id="FTOcwI3MvWnB_Ci4rsNr-5" style="edgeStyle=orthogonalEdgeStyle;rounded=0;orthogonalLoop=1;jettySize=auto;html=1;exitX=0.5;exitY=1;exitDx=0;exitDy=0;" edge="1" parent="1" source="FTOcwI3MvWnB_Ci4rsNr-4" target="FTOcwI3MvWnB_Ci4rsNr-4">
          <mxGeometry relative="1" as="geometry" />
        </mxCell>
        <mxCell id="FTOcwI3MvWnB_Ci4rsNr-6" value="Store member information" style="text;html=1;align=center;verticalAlign=middle;whiteSpace=wrap;rounded=0;" vertex="1" parent="1">
          <mxGeometry x="-490" y="205" width="60" height="30" as="geometry" />
        </mxCell>
        <mxCell id="FTOcwI3MvWnB_Ci4rsNr-7" value="Manage customer info" style="text;html=1;align=center;verticalAlign=middle;whiteSpace=wrap;rounded=0;" vertex="1" parent="1">
          <mxGeometry x="-230" y="205" width="60" height="30" as="geometry" />
        </mxCell>
        <mxCell id="FTOcwI3MvWnB_Ci4rsNr-8" value="Request service(food/drink)" style="text;html=1;align=center;verticalAlign=middle;whiteSpace=wrap;rounded=0;shadow=1;" vertex="1" parent="1">
          <mxGeometry x="-790" y="320" width="130" height="30" as="geometry" />
        </mxCell>
        <mxCell id="FTOcwI3MvWnB_Ci4rsNr-9" value="Request computer" style="text;html=1;align=center;verticalAlign=middle;whiteSpace=wrap;rounded=0;" vertex="1" parent="1">
          <mxGeometry x="-780" y="441" width="120" height="30" as="geometry" />
        </mxCell>
        <mxCell id="FTOcwI3MvWnB_Ci4rsNr-11" value="Add&amp;nbsp; money to account" style="text;html=1;align=center;verticalAlign=middle;whiteSpace=wrap;rounded=0;" vertex="1" parent="1">
          <mxGeometry x="-770" y="550" width="77.5" height="30" as="geometry" />
        </mxCell>
        <mxCell id="FTOcwI3MvWnB_Ci4rsNr-12" value="End session &amp;amp; pay" style="text;html=1;align=center;verticalAlign=middle;whiteSpace=wrap;rounded=0;" vertex="1" parent="1">
          <mxGeometry x="-767.5" y="680" width="75" height="30" as="geometry" />
        </mxCell>
        <mxCell id="FTOcwI3MvWnB_Ci4rsNr-13" value="Confirm service request" style="text;html=1;align=center;verticalAlign=middle;whiteSpace=wrap;rounded=0;" vertex="1" parent="1">
          <mxGeometry x="-500" y="320" width="100" height="30" as="geometry" />
        </mxCell>
        <mxCell id="FTOcwI3MvWnB_Ci4rsNr-14" value="Check available computers" style="text;html=1;align=center;verticalAlign=middle;whiteSpace=wrap;rounded=0;" vertex="1" parent="1">
          <mxGeometry x="-480" y="445" width="60" height="30" as="geometry" />
        </mxCell>
        <mxCell id="FTOcwI3MvWnB_Ci4rsNr-15" value="Update account balance" style="text;html=1;align=center;verticalAlign=middle;whiteSpace=wrap;rounded=0;" vertex="1" parent="1">
          <mxGeometry x="-480" y="555" width="60" height="30" as="geometry" />
        </mxCell>
        <mxCell id="FTOcwI3MvWnB_Ci4rsNr-16" value="Process payment" style="text;html=1;align=center;verticalAlign=middle;whiteSpace=wrap;rounded=0;" vertex="1" parent="1">
          <mxGeometry x="-480" y="680" width="60" height="30" as="geometry" />
        </mxCell>
        <mxCell id="FTOcwI3MvWnB_Ci4rsNr-17" value="Manage services" style="text;html=1;align=center;verticalAlign=middle;whiteSpace=wrap;rounded=0;" vertex="1" parent="1">
          <mxGeometry x="-230" y="330" width="60" height="30" as="geometry" />
        </mxCell>
        <mxCell id="FTOcwI3MvWnB_Ci4rsNr-18" value="Monitor computer&lt;br&gt;status &amp;amp; start/stop computer" style="text;html=1;align=center;verticalAlign=middle;whiteSpace=wrap;rounded=0;" vertex="1" parent="1">
          <mxGeometry x="-250" y="441" width="100" height="30" as="geometry" />
        </mxCell>
        <mxCell id="FTOcwI3MvWnB_Ci4rsNr-19" value="Generate reports&lt;br&gt;(revenue,customer usage)" style="text;html=1;align=center;verticalAlign=middle;whiteSpace=wrap;rounded=0;" vertex="1" parent="1">
          <mxGeometry x="-220" y="670" width="60" height="30" as="geometry" />
        </mxCell>
        <mxCell id="FTOcwI3MvWnB_Ci4rsNr-34" value="Customer" style="text;html=1;align=center;verticalAlign=middle;whiteSpace=wrap;rounded=0;" vertex="1" parent="1">
          <mxGeometry x="-760" y="100" width="60" height="30" as="geometry" />
        </mxCell>
        <mxCell id="FTOcwI3MvWnB_Ci4rsNr-35" value="Internet Cafe System" style="text;html=1;align=center;verticalAlign=middle;whiteSpace=wrap;rounded=0;" vertex="1" parent="1">
          <mxGeometry x="-530" y="100" width="140" height="30" as="geometry" />
        </mxCell>
        <mxCell id="FTOcwI3MvWnB_Ci4rsNr-36" value="Manager" style="text;html=1;align=center;verticalAlign=middle;whiteSpace=wrap;rounded=0;" vertex="1" parent="1">
          <mxGeometry x="-230" y="100" width="60" height="30" as="geometry" />
        </mxCell>
        <mxCell id="FTOcwI3MvWnB_Ci4rsNr-37" value="" style="endArrow=classic;html=1;rounded=0;entryX=0.5;entryY=0;entryDx=0;entryDy=0;" edge="1" parent="1">
          <mxGeometry width="50" height="50" relative="1" as="geometry">
            <mxPoint x="-730.3" y="130" as="sourcePoint" />
            <mxPoint x="-730.3" y="179.99999999999994" as="targetPoint" />
            <Array as="points">
              <mxPoint x="-730.3" y="150" />
            </Array>
          </mxGeometry>
        </mxCell>
        <mxCell id="FTOcwI3MvWnB_Ci4rsNr-41" value="" style="endArrow=classic;startArrow=classic;html=1;rounded=0;" edge="1" parent="1">
          <mxGeometry width="50" height="50" relative="1" as="geometry">
            <mxPoint x="-660" y="340" as="sourcePoint" />
            <mxPoint x="-520" y="340" as="targetPoint" />
          </mxGeometry>
        </mxCell>
        <mxCell id="FTOcwI3MvWnB_Ci4rsNr-42" value="" style="endArrow=classic;startArrow=classic;html=1;rounded=0;" edge="1" parent="1">
          <mxGeometry width="50" height="50" relative="1" as="geometry">
            <mxPoint x="-660" y="459.17" as="sourcePoint" />
            <mxPoint x="-520" y="459.17" as="targetPoint" />
          </mxGeometry>
        </mxCell>
        <mxCell id="FTOcwI3MvWnB_Ci4rsNr-43" value="" style="endArrow=classic;startArrow=classic;html=1;rounded=0;" edge="1" parent="1">
          <mxGeometry width="50" height="50" relative="1" as="geometry">
            <mxPoint x="-660" y="564.34" as="sourcePoint" />
            <mxPoint x="-520" y="564.34" as="targetPoint" />
            <Array as="points">
              <mxPoint x="-590" y="564.17" />
            </Array>
          </mxGeometry>
        </mxCell>
        <mxCell id="FTOcwI3MvWnB_Ci4rsNr-46" value="" style="endArrow=classic;startArrow=classic;html=1;rounded=0;" edge="1" parent="1">
          <mxGeometry width="50" height="50" relative="1" as="geometry">
            <mxPoint x="-660" y="700" as="sourcePoint" />
            <mxPoint x="-520" y="700" as="targetPoint" />
          </mxGeometry>
        </mxCell>
        <mxCell id="FTOcwI3MvWnB_Ci4rsNr-47" value="Request" style="text;html=1;align=center;verticalAlign=middle;whiteSpace=wrap;rounded=0;" vertex="1" parent="1">
          <mxGeometry x="-620" y="315" width="60" height="30" as="geometry" />
        </mxCell>
        <mxCell id="FTOcwI3MvWnB_Ci4rsNr-48" value="Request" style="text;html=1;align=center;verticalAlign=middle;whiteSpace=wrap;rounded=0;" vertex="1" parent="1">
          <mxGeometry x="-620" y="425" width="60" height="30" as="geometry" />
        </mxCell>
        <mxCell id="FTOcwI3MvWnB_Ci4rsNr-49" value="Request" style="text;html=1;align=center;verticalAlign=middle;whiteSpace=wrap;rounded=0;" vertex="1" parent="1">
          <mxGeometry x="-620" y="535" width="60" height="30" as="geometry" />
        </mxCell>
        <mxCell id="FTOcwI3MvWnB_Ci4rsNr-50" value="Request" style="text;html=1;align=center;verticalAlign=middle;whiteSpace=wrap;rounded=0;" vertex="1" parent="1">
          <mxGeometry x="-620" y="665" width="60" height="30" as="geometry" />
        </mxCell>
        <mxCell id="FTOcwI3MvWnB_Ci4rsNr-51" value="" style="endArrow=classic;html=1;rounded=0;exitX=0.5;exitY=1;exitDx=0;exitDy=0;entryX=0.5;entryY=0;entryDx=0;entryDy=0;" edge="1" parent="1" source="FTOcwI3MvWnB_Ci4rsNr-1" target="FTOcwI3MvWnB_Ci4rsNr-20">
          <mxGeometry width="50" height="50" relative="1" as="geometry">
            <mxPoint x="-490" y="440" as="sourcePoint" />
            <mxPoint x="-440" y="390" as="targetPoint" />
          </mxGeometry>
        </mxCell>
        <mxCell id="FTOcwI3MvWnB_Ci4rsNr-55" value="" style="endArrow=classic;html=1;rounded=0;" edge="1" parent="1">
          <mxGeometry width="50" height="50" relative="1" as="geometry">
            <mxPoint x="-280" y="340" as="sourcePoint" />
            <mxPoint x="-380" y="335" as="targetPoint" />
          </mxGeometry>
        </mxCell>
        <mxCell id="FTOcwI3MvWnB_Ci4rsNr-57" value="Provide" style="text;html=1;align=center;verticalAlign=middle;whiteSpace=wrap;rounded=0;" vertex="1" parent="1">
          <mxGeometry x="-360" y="315" width="60" height="30" as="geometry" />
        </mxCell>
        <mxCell id="FTOcwI3MvWnB_Ci4rsNr-58" value="" style="endArrow=none;html=1;rounded=0;" edge="1" parent="1">
          <mxGeometry width="50" height="50" relative="1" as="geometry">
            <mxPoint x="-200" y="180" as="sourcePoint" />
            <mxPoint x="-200" y="130" as="targetPoint" />
          </mxGeometry>
        </mxCell>
        <mxCell id="FTOcwI3MvWnB_Ci4rsNr-59" value="" style="endArrow=none;html=1;rounded=0;" edge="1" parent="1">
          <mxGeometry width="50" height="50" relative="1" as="geometry">
            <mxPoint x="-200" y="310" as="sourcePoint" />
            <mxPoint x="-200" y="260" as="targetPoint" />
          </mxGeometry>
        </mxCell>
        <mxCell id="FTOcwI3MvWnB_Ci4rsNr-60" value="" style="endArrow=classic;html=1;rounded=0;" edge="1" parent="1">
          <mxGeometry width="50" height="50" relative="1" as="geometry">
            <mxPoint x="-200" y="380" as="sourcePoint" />
            <mxPoint x="-200" y="420" as="targetPoint" />
          </mxGeometry>
        </mxCell>
        <mxCell id="FTOcwI3MvWnB_Ci4rsNr-61" value="" style="endArrow=classic;html=1;rounded=0;" edge="1" parent="1">
          <mxGeometry width="50" height="50" relative="1" as="geometry">
            <mxPoint x="-280" y="460" as="sourcePoint" />
            <mxPoint x="-380" y="460" as="targetPoint" />
          </mxGeometry>
        </mxCell>
        <mxCell id="FTOcwI3MvWnB_Ci4rsNr-62" value="" style="endArrow=classic;html=1;rounded=0;" edge="1" parent="1">
          <mxGeometry width="50" height="50" relative="1" as="geometry">
            <mxPoint x="-200" y="500" as="sourcePoint" />
            <mxPoint x="-200" y="640" as="targetPoint" />
          </mxGeometry>
        </mxCell>
        <mxCell id="FTOcwI3MvWnB_Ci4rsNr-63" value="" style="endArrow=classic;html=1;rounded=0;" edge="1" parent="1">
          <mxGeometry width="50" height="50" relative="1" as="geometry">
            <mxPoint x="-460" y="260" as="sourcePoint" />
            <mxPoint x="-460" y="300" as="targetPoint" />
          </mxGeometry>
        </mxCell>
        <mxCell id="FTOcwI3MvWnB_Ci4rsNr-64" value="" style="endArrow=none;html=1;rounded=0;" edge="1" parent="1">
          <mxGeometry width="50" height="50" relative="1" as="geometry">
            <mxPoint x="-460" y="180" as="sourcePoint" />
            <mxPoint x="-460" y="130" as="targetPoint" />
          </mxGeometry>
        </mxCell>
        <mxCell id="FTOcwI3MvWnB_Ci4rsNr-65" value="" style="endArrow=classic;html=1;rounded=0;" edge="1" parent="1">
          <mxGeometry width="50" height="50" relative="1" as="geometry">
            <mxPoint x="-270" y="690" as="sourcePoint" />
            <mxPoint x="-370" y="690" as="targetPoint" />
          </mxGeometry>
        </mxCell>
        <mxCell id="FTOcwI3MvWnB_Ci4rsNr-66" value="Review" style="text;html=1;align=center;verticalAlign=middle;whiteSpace=wrap;rounded=0;" vertex="1" parent="1">
          <mxGeometry x="-350" y="665" width="60" height="30" as="geometry" />
        </mxCell>
        <mxCell id="FTOcwI3MvWnB_Ci4rsNr-67" value="Status" style="text;html=1;align=center;verticalAlign=middle;whiteSpace=wrap;rounded=0;" vertex="1" parent="1">
          <mxGeometry x="-360" y="430" width="60" height="30" as="geometry" />
        </mxCell>
        <mxCell id="FTOcwI3MvWnB_Ci4rsNr-68" value="Confirm" style="text;html=1;align=center;verticalAlign=middle;whiteSpace=wrap;rounded=0;" vertex="1" parent="1">
          <mxGeometry x="-620" y="345" width="60" height="30" as="geometry" />
        </mxCell>
        <mxCell id="FTOcwI3MvWnB_Ci4rsNr-69" value="Confirm" style="text;html=1;align=center;verticalAlign=middle;whiteSpace=wrap;rounded=0;" vertex="1" parent="1">
          <mxGeometry x="-620" y="460" width="60" height="30" as="geometry" />
        </mxCell>
        <mxCell id="FTOcwI3MvWnB_Ci4rsNr-70" value="Confirm" style="text;html=1;align=center;verticalAlign=middle;whiteSpace=wrap;rounded=0;" vertex="1" parent="1">
          <mxGeometry x="-620" y="565" width="60" height="30" as="geometry" />
        </mxCell>
        <mxCell id="FTOcwI3MvWnB_Ci4rsNr-71" value="Confirm" style="text;html=1;align=center;verticalAlign=middle;whiteSpace=wrap;rounded=0;" vertex="1" parent="1">
          <mxGeometry x="-620" y="700" width="60" height="30" as="geometry" />
        </mxCell>
      </root>
    </mxGraphModel>
  </diagram>
</mxfile>
